HIERARCHY
ROOT RootJoint
{
    OFFSET   0.000000   0.000000   0.000000
    CHANNELS 6 Xposition Yposition Zposition Xrotation Yrotation Zrotation
    JOINT pelvis_lowerback
    {
        OFFSET   0.000000   0.093605   0.000000
        CHANNELS 3 Xrotation Yrotation Zrotation
        JOINT lowerback_torso
        {
            OFFSET   0.000000   0.100000   0.000000
            CHANNELS 3 Xrotation Yrotation Zrotation
            JOINT torso_head
            {
                OFFSET   0.000000   0.282350   0.000000
                CHANNELS 3 Xrotation Yrotation Zrotation
                End Site
                {
                    OFFSET   0.000000   0.192650   0.000000
                }
            }
            JOINT rTorso_Clavicle
            {
                OFFSET  -0.001000   0.157500   0.000000
                CHANNELS 3 Xrotation Yrotation Zrotation
                JOINT rShoulder
                {
                    OFFSET  -0.117647   0.000000   0.000000
                    CHANNELS 3 Xrotation Yrotation Zrotation
                    JOINT rElbow
                    {
                        OFFSET  -0.245000   0.000000   0.000000
                        CHANNELS 3 Xrotation Yrotation Zrotation
                        JOINT rWrist
                        {
                            OFFSET  -0.240000   0.000000   0.000000
                            CHANNELS 3 Xrotation Yrotation Zrotation
                            End Site
                            {
                                OFFSET  -0.116353  -0.002500   0.000000
                            }
                        }
                    }
                }
            }
            JOINT lTorso_Clavicle
            {
                OFFSET   0.001000   0.157500   0.000000
                CHANNELS 3 Xrotation Yrotation Zrotation
                JOINT lShoulder
                {
                    OFFSET   0.117647   0.000000   0.000000
                    CHANNELS 3 Xrotation Yrotation Zrotation
                    JOINT lElbow
                    {
                        OFFSET   0.245000   0.000000   0.000000
                        CHANNELS 3 Xrotation Yrotation Zrotation
                        JOINT lWrist
                        {
                            OFFSET   0.240000   0.000000   0.000000
                            CHANNELS 3 Xrotation Yrotation Zrotation
                            End Site
                            {
                                OFFSET   0.116353  -0.002500   0.000000
                            }
                        }
                    }
                }
            }
        }
    }
    JOINT rHip
    {
        OFFSET  -0.100000  -0.051395   0.000000
        CHANNELS 3 Xrotation Yrotation Zrotation
        JOINT rKnee
        {
            OFFSET   0.000000  -0.410000   0.000000
            CHANNELS 3 Xrotation Yrotation Zrotation
            JOINT rAnkle
            {
                OFFSET   0.000000  -0.390000   0.000000
                CHANNELS 3 Xrotation Yrotation Zrotation
                JOINT rToeJoint
                {
                    OFFSET   0.000000  -0.050000   0.130000
                    CHANNELS 3 Xrotation Yrotation Zrotation
                    End Site
                    {
                        OFFSET  -0.010000   0.002000   0.060000
                    }
                }
            }
        }
    }
    JOINT lHip
    {
        OFFSET   0.100000  -0.051395   0.000000
        CHANNELS 3 Xrotation Yrotation Zrotation
        JOINT lKnee
        {
            OFFSET   0.000000  -0.410000   0.000000
            CHANNELS 3 Xrotation Yrotation Zrotation
            JOINT lAnkle
            {
                OFFSET   0.000000  -0.390000   0.000000
                CHANNELS 3 Xrotation Yrotation Zrotation
                JOINT lToeJoint
                {
                    OFFSET   0.000000  -0.050000   0.130000
                    CHANNELS 3 Xrotation Yrotation Zrotation
                    End Site
                    {
                        OFFSET   0.010000   0.002000   0.060000
                    }
                }
            }
        }
    }
}
MOTION
Frames: 10
Frame Time:   0.008333
 -2.376719   0.925631   3.975860   0.000000   0.000000   0.000000   0.000000   0.000000   0.000000   0.000000   0.000000   0.000000   0.000000   0.000000   0.000000   0.000000   0.000000   0.000000   0.000000   0.000000   0.000000   0.000000   0.000000   0.000000   0.000000   0.000000   0.000000   0.000000   0.000000   0.000000   0.000000   0.000000   0.000000   0.000000   0.000000   0.000000   0.000000   0.000000   0.000000   0.000000   0.000000   0.000000   0.000000   0.000000   0.000000   0.000000   0.000000   0.000000   0.000000   0.000000   0.000000   0.000000   0.000000   0.000000   0.000000   0.000000   0.000000   0.000000   0.000000   0.000000   0.000000   0.000000   0.000000
 -2.376571   0.925091   3.974053  -0.838371   0.592010  -0.203342   1.252291  -0.037909   0.199883  -0.005540  -0.186788   0.262670   0.019467  -0.213480  -0.003030  -0.527365  -0.271775  -0.695931  -2.087495  -0.351244   1.073282   0.017315   3.488606   0.066766  -0.010945  -1.937296  -0.909506  -0.510098  -0.060145   0.307459  -0.137062  -0.834413  -1.970031   0.040818  -3.326007  -0.005316   0.003682   2.361100   1.516883   0.008528  -0.763457   0.010442   2.031636   0.003344  -0.003125  -1.379320  -0.190428   0.140010  -0.113939  -0.000054   0.000359  -0.219676   0.141807   0.470016   3.174871  -0.006694   0.020612  -2.687715   0.414808   0.123914   0.106178  -0.000371   0.001062
 -2.376451   0.924184   3.971677  -1.884793   1.351273  -0.390042   2.557750  -0.138517   0.427108   0.181251  -0.484008   0.523460   0.098156  -0.407088   0.048915  -1.035502  -0.289667  -1.200224  -4.053783  -0.484860   2.200251   0.033214   7.136546   0.117891  -0.095005  -2.849210  -1.541970  -0.986624  -0.534010   0.217662  -0.319796  -1.997352  -4.130677   0.093602  -6.871134  -0.006804  -0.008035   3.462693   2.513400   0.003154  -1.507343  -0.164639   4.188295   0.009311  -0.002824  -2.657091  -0.379998   0.261570  -0.240183  -0.000304   0.000486  -0.286995   0.320839   1.172431   6.718850  -0.016933   0.047432  -5.189011   0.814496   0.258978   0.150804  -0.000544   0.001374
 -2.376417   0.922735   3.968963  -2.963698   2.155391  -0.523165   3.823392  -0.290670   0.628143   0.416304  -0.833476   0.738851   0.170842  -0.585438   0.119597  -1.505111  -0.088741  -1.534466  -5.891361  -0.474593   3.354128   0.044528  10.693002   0.153404  -0.174292  -3.185348  -1.921844  -1.433373  -1.271640  -0.116743  -0.552024  -3.307705  -6.336759   0.148273 -10.510762  -0.006495  -0.007199   3.869069   3.072431  -0.105520  -2.202871  -0.520799   6.213905   0.015999  -0.001712  -3.846617  -0.561522   0.368556  -0.348297  -0.000597   0.000477  -0.248847   0.506221   2.042813  10.236557  -0.027511   0.072702  -7.517582   1.188249   0.403250   0.213346  -0.000886   0.001862
 -2.376475   0.920626   3.966070  -4.019822   2.949105  -0.602444   5.033464  -0.475563   0.787463   0.659644  -1.206331   0.900842   0.226328  -0.751487   0.193886  -1.938418   0.259836  -1.746828  -7.609043  -0.379910   4.512398   0.050333  14.062224   0.175692  -0.245494  -3.183157  -2.113595  -1.858082  -2.163982  -0.600324  -0.832293  -4.677655  -8.526524   0.199971 -14.208902  -0.004779   0.006320   3.875763   3.327095  -0.336789  -2.850107  -1.027821   8.070129   0.022195  -0.001113  -4.957545  -0.734831   0.463145  -0.450281  -0.000902   0.000442  -0.114404   0.689569   3.046260  13.569129  -0.036772   0.093438  -9.689125   1.535178   0.554809   0.276973  -0.001252   0.002261
 -2.376950   0.918745   3.963373  -5.016497   3.556126  -0.672228   6.145928  -0.622330   0.874936   0.894521  -1.541187   1.019260   0.269019  -0.904700   0.269139  -2.336394   0.704778  -1.798600  -9.211980  -0.242766   5.695507   0.053079  17.240444   0.188630  -0.308786  -2.974060  -2.167542  -2.260212  -3.107879  -1.222264  -1.150995  -6.032248 -10.684619   0.249205 -17.938019  -0.002815   0.029191   3.663098   3.394438  -0.539675  -3.697389  -1.015429  10.363060   0.017631  -0.007237  -5.683263  -1.042822   0.822602  -0.595408  -0.000317   0.001102   0.136665   0.876777   4.206398  16.682984  -0.045663   0.105493 -11.713800   1.857380   0.713761   0.355749  -0.001775   0.002645
 -2.377150   0.916927   3.960693  -5.903693   4.157874  -0.634468   7.174159  -0.821225   0.914536   1.103034  -1.901034   1.051900   0.291569  -1.049260   0.331782  -2.702173   1.182706  -1.794839 -10.706806  -0.103475   6.849244   0.052166  20.222716   0.193295  -0.369602  -2.667781  -2.117260  -2.639278  -4.083485  -1.941043  -1.500507  -7.355921 -12.808331   0.293541 -21.689681   0.001214   0.050463   3.322845   3.262761  -0.734187  -4.369157  -1.105390  12.418663   0.014006  -0.008250  -6.440084  -1.228972   0.975844  -0.667784  -0.000176   0.001069   0.385594   1.044260   5.331345  19.605363  -0.051511   0.114710 -13.603820   2.152407   0.874959   0.429736  -0.002181   0.002889
 -2.377090   0.914489   3.957358  -6.249936   4.581059  -0.645030   7.941896  -0.931621   1.021135   0.982572  -2.199020   1.050100   0.245574  -1.336610   0.386484  -3.024963   1.504990  -1.881803 -12.341523   0.062864   7.960811   0.043793  23.303018   0.204147  -0.390782  -2.497263  -1.949720  -2.830074  -4.935352  -2.388991  -2.002076  -8.803282 -15.082072   0.326760 -25.458327   0.008456   0.049093   2.983922   2.797339  -1.849498  -5.232179  -1.292567  15.033767   0.010313  -0.018201  -7.459583  -1.491931   1.015025  -0.722815  -0.000151   0.001214   0.302835   1.285643   6.443392  21.603470  -0.050572   0.111338 -15.042577   2.436426   0.862235   0.732122  -0.004262   0.005233
 -2.376830   0.911621   3.953932  -6.515660   5.010951  -0.681872   8.707089  -1.076140   1.161781   0.852751  -2.513867   1.063085   0.182929  -1.610085   0.441119  -3.331386   1.836029  -2.005590 -13.876556   0.220423   8.973966   0.032750  26.196098   0.206398  -0.413403  -2.229320  -1.844751  -3.015774  -5.792485  -2.788261  -2.529048 -10.183141 -17.216770   0.350844 -29.242477   0.019478   0.045894   2.593289   2.289808  -3.025136  -6.064738  -1.503831  17.572068   0.007078  -0.024998  -8.377244  -1.747437   1.054406  -0.784541  -0.000137   0.001354   0.211878   1.497067   7.545842  23.330881  -0.047852   0.105808 -16.390737   2.699375   0.857772   1.018274  -0.005691   0.006881
 -2.376378   0.908450   3.950540  -6.735964   5.424946  -0.738138   9.462784  -1.237590   1.321606   0.752634  -2.837796   1.088852   0.124108  -1.865613   0.494808  -3.619191   2.168463  -2.149847 -15.314950   0.363311   9.903715   0.021450  28.904015   0.202134  -0.431473  -1.921751  -1.802983  -3.201458  -6.642989  -3.147800  -3.076447 -11.489850 -19.217134   0.369074 -33.037734   0.033412   0.046055   2.163338   1.823751  -4.190671  -6.837655  -1.733063  19.984859   0.004416  -0.029015  -9.217261  -1.986585   1.088415  -0.837916  -0.000129   0.001388   0.131693   1.688104   8.619997  24.911967  -0.044443   0.099434 -17.651204   2.944003   0.860771   1.278501  -0.006528   0.007844
